<?xml version="1.0" encoding="UTF-8" standalone="no"?>
<svg
   xmlns:svg="http://www.w3.org/2000/svg"
   xmlns="http://www.w3.org/2000/svg"
   width="24"
   height="24">
    <path
       id="path823" fill="#fff"
       d="M 5 3 C 4.45 3 3.9798906 3.1965573 3.5878906 3.5878906 C 3.1965573 3.9798906 3 4.45 3 5 L 3 19 C 3 19.55 3.1965573 20.020109 3.5878906 20.412109 C 3.9798906 20.803443 4.45 21 5 21 L 19 21 C 19.55 21 20.020109 20.803443 20.412109 20.412109 C 20.803443 20.020109 21 19.55 21 19 L 21 5 C 21 4.45 20.803443 3.9798906 20.412109 3.5878906 C 20.020109 3.1965573 19.55 3 19 3 L 5 3 z M 5 7 L 19 7 L 19 19 L 5 19 L 5 7 z M 7 10 L 7 12 L 17 12 L 17 10 L 7 10 z M 7.0898438 14 L 7.0898438 16 L 17 16 L 17 14 L 7.0898438 14 z "
       />
</svg>
