<?xml version="1.0" encoding="UTF-8"?>
<svg version="1.1" viewBox="0 0 24 24" width="24" height="24" xmlns="http://www.w3.org/2000/svg" xmlns:cc="http://creativecommons.org/ns#" xmlns:dc="http://purl.org/dc/elements/1.1/" xmlns:rdf="http://www.w3.org/1999/02/22-rdf-syntax-ns#">
<g>
<path d="m5 3c-0.55 0-1.0201 0.19656-1.4121 0.58789-0.39133 0.392-0.58789 0.86211-0.58789 1.4121v14c0 0.55 0.19656 1.0201 0.58789 1.4121 0.392 0.39133 0.86211 0.58789 1.4121 0.58789h14c0.55 0 1.0201-0.19656 1.4121-0.58789 0.39133-0.392 0.58789-0.86211 0.58789-1.4121v-14c0-0.55-0.19656-1.0201-0.58789-1.4121-0.392-0.39133-0.86211-0.58789-1.4121-0.58789h-14zm0 4h6v12h-6v-12zm8 0h6v12h-6v-12z" fill="#fff"/>
</g>
</svg>
