<?xml version="1.0" encoding="UTF-8" standalone="no"?>
<svg
   xmlns:dc="http://purl.org/dc/elements/1.1/"
   xmlns:cc="http://creativecommons.org/ns#"
   xmlns:rdf="http://www.w3.org/1999/02/22-rdf-syntax-ns#"
   xmlns:svg="http://www.w3.org/2000/svg"
   xmlns="http://www.w3.org/2000/svg"
   id="svg4"
   version="1.1"
   width="24"
   height="24">
  <metadata
     id="metadata10">
    <rdf:RDF>
      <cc:Work
         rdf:about="">
        <dc:format>image/svg+xml</dc:format>
        <dc:type
           rdf:resource="http://purl.org/dc/dcmitype/StillImage" />
        <dc:title></dc:title>
      </cc:Work>
    </rdf:RDF>
  </metadata>
  <defs
     id="defs8" />
  <g
     style="display:inline"
     id="layer1">
    <path
       id="path823"
       d="M 5 3 C 4.45 3 3.9798906 3.1965573 3.5878906 3.5878906 C 3.1965573 3.9798906 3 4.45 3 5 L 3 19 C 3 19.55 3.1965573 20.020109 3.5878906 20.412109 C 3.9798906 20.803443 4.45 21 5 21 L 19 21 C 19.55 21 20.020109 20.803443 20.412109 20.412109 C 20.803443 20.020109 21 19.55 21 19 L 21 5 C 21 4.45 20.803443 3.9798906 20.412109 3.5878906 C 20.020109 3.1965573 19.55 3 19 3 L 5 3 z M 5 7 L 11 7 L 11 19 L 5 19 L 5 7 z M 13 7 L 19 7 L 19 19 L 13 19 L 13 7 z "
       style="fill:#ffffff" />
  </g>
</svg>
